<svg width="512" height="512" viewBox="0 0 160 160" xmlns="http://www.w3.org/2000/svg">
  <defs>
    <!-- Excel green -->
    <linearGradient id="excelGreen" x1="0%" y1="0%" x2="100%" y2="100%">
      <stop offset="0%" stop-color="#22C55E"/>
      <stop offset="100%" stop-color="#15803D"/>
    </linearGradient>

    <!-- Canva gradient -->
    <linearGradient id="canvaGrad" x1="0%" y1="0%" x2="100%" y2="100%">
      <stop offset="0%" stop-color="#22D3EE"/>
      <stop offset="50%" stop-color="#6366F1"/>
      <stop offset="100%" stop-color="#A855F7"/>
    </linearGradient>
  </defs>

  <!-- Outer container -->
  <rect x="8" y="8" width="144" height="144" rx="24" ry="24" fill="#E5E7EB"/>

  <!-- TOP LEFT : Image -->
  <rect x="20" y="20" width="52" height="52" rx="12" fill="url(#excelGreen)"/>
  <circle cx="34" cy="34" r="6" fill="#FACC15"/>
  <path d="M26 60 L40 44 L54 60 Z" fill="#DCFCE7"/>

  <!-- TOP RIGHT : Canva -->
  <rect x="88" y="20" width="52" height="52" rx="12" fill="url(#canvaGrad)"/>
  <path d="M98 46
           C106 30, 130 30, 130 46
           C130 62, 106 62, 98 46 Z"
        fill="#FFFFFF" opacity="0.9"/>

  <!-- BOTTOM LEFT : Excel -->
  <rect x="20" y="88" width="52" height="52" rx="12" fill="url(#excelGreen)"/>
  <rect x="32" y="100" width="28" height="28"
        fill="none" stroke="#FFFFFF" stroke-width="4"/>
  <line x1="46" y1="100" x2="46" y2="128"
        stroke="#FFFFFF" stroke-width="4"/>
  <line x1="32" y1="114" x2="60" y2="114"
        stroke="#FFFFFF" stroke-width="4"/>

  <!-- BOTTOM RIGHT : CENTERED BLUE TICK -->
  <rect x="88" y="88" width="52" height="52" rx="12" fill="#FFFFFF"/>
  <path d="M100 112 L114 126 L136 104"
        stroke="#2563EB"
        stroke-width="7.5"
        fill="none"
        stroke-linecap="round"
        stroke-linejoin="round"/>
</svg>
